<?xml version="1.0" encoding="iso-8859-1"?>
<!-- Generator: Adobe Illustrator 19.0.0, SVG Export Plug-In . SVG Version: 6.00 Build 0)  -->
<svg xmlns="http://www.w3.org/2000/svg" xmlns:xlink="http://www.w3.org/1999/xlink" version="1.1" id="Layer_1" x="0px" y="0px" viewBox="0 0 512.003 512.003" style="enable-background:new 0 0 512.003 512.003;" xml:space="preserve" width="35" height="35">
<g>
	<g>
		<g>
			<path d="M471.595,235.798h-77.492c0-31.645-40.406-31.627-40.406,0h-77.493v-77.493c31.645,0,31.627-40.406,0-40.406V40.407     c33.176,0,28.528-40.406,3.373-40.406h-47.152c-25.608,0-29.251,40.406,3.372,40.406v77.492c-31.918,0-31.298,40.406,0,40.406     v77.493h-77.493c0-31.436-40.406-31.616-40.406,0H40.407c0-33.176-40.406-28.528-40.406-3.373v47.152     c0,25.146,40.406,29.771,40.406-3.373h77.492c0,31.385,40.406,31.802,40.406,0h77.493v77.492c-31.645,0-31.627,40.406,0,40.406     v77.493c-33.176,0-28.528,40.406-3.373,40.406h47.152c25.161,0,29.781-40.406-3.373-40.406v-77.493h3.373     c25.161,0,29.781-40.406-3.373-40.406v-77.492h77.493c0,31.645,40.406,31.627,40.406,0h77.492     c0,32.594,40.406,29.013,40.406,3.372v-47.152C512.001,207.264,471.595,202.644,471.595,235.798z" fill="#FFFFFF"/>
			<path d="M491.798,185.348c11.157,0,20.203-9.046,20.203-20.203s-9.046-20.203-20.203-20.203     c-68.78,0-124.737-55.957-124.737-124.739C367.06,9.046,358.015,0,346.857,0c-11.157,0-20.203,9.046-20.203,20.203     C326.653,111.265,400.736,185.348,491.798,185.348z" fill="#FFFFFF"/>
			<path d="M20.204,326.655c-11.157,0-20.203,9.046-20.203,20.203c0,11.157,9.046,20.203,20.203,20.203     c68.78,0,124.737,55.957,124.737,124.737c0,11.157,9.046,20.203,20.203,20.203s20.203-9.046,20.203-20.203     C185.347,400.737,111.265,326.655,20.204,326.655z" fill="#FFFFFF"/>
		</g>
	</g>
</g>

</svg>
